<?xml version="1.0" encoding="UTF-8"?>
<svg id="_图层_1" data-name="图层 1" xmlns="http://www.w3.org/2000/svg" viewBox="0 0 129 26">
  <defs>
    <style>
      .cls-1 {
        fill: #fff;
        font-family: Hind-Bold, Hind;
        font-size: 24.74px;
        font-weight: 700;
        letter-spacing: -.02em;
        stroke: #e0e0e0;
        stroke-miterlimit: 10;
        stroke-width: .15px;
      }

      .cls-2 {
        fill: #4a0080;
      }
    </style>
  </defs>
  <g>
    <path class="cls-2" d="m128.62.02h-4.74c-.21,0-.38.17-.38.39v3.06c1.8-1.12,3.59-2.24,5.36-3.36-.07-.06-.15-.09-.24-.09Z"/>
    <g>
      <path class="cls-2" d="m110.53,12.65c1.52-.95,4.6-2.86,4.6-2.86L111.1.31s-.21-.29-.4-.29h-3.53c-.17,0-.33.1-.39.26l-10.16,25.14c-.11.28.09.58.39.58h4.84c.17,0,.33-.1.39-.26l6.79-16.8,1.5,3.71Z"/>
      <path class="cls-2" d="m116.43,13c-1.85,1.68-3.71,3.35-5.56,4.97h0c-.83.76-1.65,1.52-2.48,2.27h5.21l2.24,5.54c.05.13.18.21.32.21h4.9c.3,0,.5-.3.39-.58l-5.02-12.42Z"/>
    </g>
    <path class="cls-2" d="m128.75,26c.14-.07.25-.24.25-.45V.47c0-.15-.05-.27-.14-.36-1.78,1.94-3.57,3.93-5.36,5.94v19.51c0,.2.1.38.25.45"/>
  </g>
  <text class="cls-1" transform="translate(1.3 20.89)"><tspan x="0" y="0">Stability</tspan></text>
  <circle class="cls-2" cx="91.95" cy="19.5" r="2.77"/>
</svg>