<?xml version="1.0" encoding="UTF-8"?>
<svg id="_图层_1" data-name="图层 1" xmlns="http://www.w3.org/2000/svg" viewBox="0 0 32 32">
  <defs>
    <style>
      .cls-1 {
        font-family: Hind-Bold, Hind;
        font-size: 3.47px;
        font-weight: 700;
        letter-spacing: .04em;
      }

      .cls-1, .cls-2 {
        fill: #f7931e;
      }
    </style>
  </defs>
  <g>
    <path class="cls-2" d="m23.92,7.62h-2.49c-.11,0-.2.09-.2.2v1.6c.94-.58,1.88-1.17,2.81-1.75-.03-.03-.08-.05-.13-.05Z"/>
    <g>
      <g>
        <path class="cls-2" d="m14.42,14.15c.8-.5,1.61-1,2.41-1.5l-1.97-4.87c-.03-.07-.08-.1-.15-.11-.03-.09-.11-.15-.21-.15h-1.86c-.09,0-.17.05-.21.14l-5.33,13.2c-.06.15.05.3.21.3h2.54c.09,0,.17-.05.21-.14l3.56-8.82.79,1.95Z"/>
        <path class="cls-2" d="m17.52,14.33c-.97.88-1.95,1.76-2.92,2.61h0l-1.3,1.19h2.73l1.18,2.91c.03.07.09.11.17.11h2.57c.16,0,.26-.16.21-.3l-2.63-6.52Z"/>
      </g>
      <path class="cls-2" d="m23.99,21.16c.08-.04.13-.13.13-.23V7.86c0-.08-.03-.14-.07-.19-.94,1.01-1.88,2.47-2.81,3.52v9.74c0,.11.05.2.13.23"/>
    </g>
  </g>
  <text class="cls-1" transform="translate(6.93 24.12)"><tspan x="0" y="0">GENERATE</tspan></text>
  <path class="cls-2" d="m16,32L2.14,24v-16L16,0l13.86,8v16l-13.86,8Zm-11.51-9.35l11.51,6.65,11.51-6.65v-13.29L16,2.71l-11.51,6.65v13.29Z"/>
</svg>