<?xml version="1.0" encoding="utf-8"?>
<!-- Generator: Adobe Illustrator 27.3.1, SVG Export Plug-In . SVG Version: 6.00 Build 0)  -->
<svg version="1.1" id="图层_1" xmlns="http://www.w3.org/2000/svg" xmlns:xlink="http://www.w3.org/1999/xlink" x="0px" y="0px"
	 viewBox="0 0 32 32" style="enable-background:new 0 0 32 32;" xml:space="preserve">
<style type="text/css">
	.st0{fill:#4A0080;}
</style>
<g>
	<g>
		<path class="st0" d="M30.3,4.3H26c-0.2,0-0.3,0.2-0.3,0.3v2.8c1.6-1,3.2-2,4.8-3C30.5,4.3,30.4,4.3,30.3,4.3z"/>
	</g>
	<g>
		<path class="st0" d="M14,15.7c1.4-0.9,4.2-2.6,4.2-2.6l-3.6-8.6c0,0-0.2-0.3-0.4-0.3h-3.2c-0.2,0-0.3,0.1-0.4,0.2L1.4,27.2
			c-0.1,0.3,0.1,0.5,0.4,0.5h4.4c0.2,0,0.3-0.1,0.4-0.2l6.1-15.2L14,15.7z"/>
		<path class="st0" d="M19.3,16c-1.7,1.5-3.3,3-5,4.5v0c-0.7,0.7-1.5,1.4-2.2,2.1c1.6,0,3.1,0,4.7,0l2,5c0,0.1,0.2,0.2,0.3,0.2h4.4
			c0.3,0,0.5-0.3,0.4-0.5L19.3,16z"/>
	</g>
	<g>
		<path class="st0" d="M30.4,27.7c0.1-0.1,0.2-0.2,0.2-0.4V4.7c0-0.1,0-0.2-0.1-0.3c-1.6,1.8-3.2,3.5-4.8,5.4v17.6
			c0,0.2,0.1,0.3,0.2,0.4"/>
	</g>
</g>
</svg>
